<svg width="77" height="32" viewBox="0 0 77 32" fill="none" xmlns="http://www.w3.org/2000/svg">
<path fill-rule="evenodd" clip-rule="evenodd" d="M63.1964 21.1142V31.4155H55.5982V31.2554C56.3539 30.9776 56.9749 30.6657 57.4612 30.3196L55.5982 26.484V17.6438L57.4612 13.8082C56.992 13.4517 56.371 13.1349 55.5982 12.8578V0H63.1964V14.4658C64.0609 13.723 65.0381 13.1476 66.1279 12.7397C67.2177 12.3318 68.3227 12.1279 69.4429 12.1279C70.8676 12.1279 72.1431 12.4505 73.2694 13.0959C74.3957 13.7412 75.2877 14.6149 75.9452 15.7169C76.6027 16.8189 76.9315 18.07 76.9315 19.4703V31.4155H69.3333V21.1142C69.3333 20.1766 69.0533 19.4247 68.4931 18.8584C67.933 18.2922 67.1903 18.0091 66.2648 18.0091C65.656 18.0091 65.1202 18.137 64.6575 18.3927C64.1948 18.6484 63.8356 19.0076 63.5799 19.4703C63.3242 19.933 63.1964 20.481 63.1964 21.1142ZM46.3393 13.3521C46.6076 13.2116 46.8842 13.0806 47.1689 12.9589C48.4658 12.4049 49.8752 12.1279 51.3973 12.1279C52.5906 12.1279 53.7473 12.2922 54.8676 12.621C55.1246 12.6964 55.3681 12.7754 55.5982 12.8578V17.6438L54.9772 18.9224C54.3683 18.5084 53.589 18.3014 52.6393 18.3014C51.7382 18.3014 51.0046 18.5023 50.4384 18.9041C49.8721 19.3059 49.4581 19.7991 49.1964 20.3836C48.9346 20.968 48.8037 21.5282 48.8037 22.0639C48.8037 22.7336 48.9589 23.3546 49.2694 23.9269C49.5799 24.4992 50.0274 24.9589 50.6119 25.3059C51.1963 25.653 51.8843 25.8265 52.6758 25.8265C53.1629 25.8265 53.6104 25.7626 54.0183 25.6347C54.4262 25.5068 54.7458 25.3638 54.9772 25.2055L55.5982 26.484V31.2554C55.37 31.3393 55.1295 31.4201 54.8767 31.4977C53.7869 31.8326 52.6393 32 51.4338 32C49.997 32 48.6362 31.7412 47.3516 31.2237C46.067 30.7062 44.9315 29.9909 43.9452 29.0776C42.9589 28.1644 42.1826 27.1081 41.6164 25.9087C41.0502 24.7093 40.7671 23.4338 40.7671 22.0822C40.7671 20.9953 40.9622 19.9377 41.3524 18.9091C41.463 18.9404 41.5753 18.9753 41.6895 19.0137C42.3044 19.2207 42.8371 19.4947 43.2877 19.8356L46.4658 13.4429C46.4245 13.4122 46.3823 13.3819 46.3393 13.3521ZM28.6393 23.1637L32 31.4155L36.2374 31.4155V22.2466C36.2374 21.6256 36.414 21.0472 36.7671 20.5114C37.1202 19.9756 37.586 19.5403 38.1644 19.2055C38.7428 18.8706 39.3546 18.7032 40 18.7032C40.4165 18.7032 40.8672 18.7718 41.3524 18.9091C41.4168 18.7392 41.4866 18.5701 41.5616 18.4018C42.0913 17.2146 42.8341 16.1492 43.79 15.2055C44.5359 14.469 45.3857 13.8512 46.3393 13.3521C45.8366 13.0038 45.2152 12.7175 44.4749 12.4932C43.6712 12.2496 42.9102 12.1279 42.1918 12.1279C41.0837 12.1279 40.0091 12.411 38.968 12.9772C37.9269 13.5434 37.0167 14.3318 36.2374 15.3425V12.7123H28.6393V23.1637ZM8.65753 31.4155L10.4658 26.411H21.5342L23.3425 31.4155L28.6393 31.4155V23.1637L19.726 1.27854H12.274L0 31.4155H8.65753ZM13.2055 19.3607L16 12.2009L18.7945 19.3607H13.2055Z" fill="#1B1D23"/>
</svg>
